<mxfile host="Electron" agent="Mozilla/5.0 (Windows NT 10.0; Win64; x64) AppleWebKit/537.36 (KHTML, like Gecko) draw.io/26.2.2 Chrome/134.0.6998.178 Electron/35.1.2 Safari/537.36" version="26.2.2">
  <diagram name="Page-1" id="b5b7bab2-c9e2-2cf4-8b2a-24fd1a2a6d21">
    <mxGraphModel dx="835" dy="521" grid="1" gridSize="10" guides="1" tooltips="1" connect="1" arrows="1" fold="1" page="1" pageScale="1" pageWidth="827" pageHeight="1169" background="none" math="0" shadow="0">
      <root>
        <mxCell id="0" />
        <mxCell id="1" parent="0" />
        <mxCell id="_8J_x-qcuJljue7Ap3kh-1" value="JobListingFactory" style="swimlane;fontStyle=0;align=center;verticalAlign=top;childLayout=stackLayout;horizontal=1;startSize=20;horizontalStack=0;resizeParent=1;resizeParentMax=0;resizeLast=0;collapsible=0;marginBottom=0;html=1;whiteSpace=wrap;" vertex="1" parent="1">
          <mxGeometry x="40" y="80" width="140" height="70" as="geometry" />
        </mxCell>
        <mxCell id="_8J_x-qcuJljue7Ap3kh-2" value="+createJobListing(type:&lt;div&gt;String):&amp;nbsp;&lt;span style=&quot;background-color: transparent; color: light-dark(rgb(0, 0, 0), rgb(255, 255, 255));&quot;&gt;JobListing&lt;/span&gt;&lt;/div&gt;" style="text;html=1;strokeColor=none;fillColor=none;align=left;verticalAlign=middle;spacingLeft=4;spacingRight=4;overflow=hidden;rotatable=0;points=[[0,0.5],[1,0.5]];portConstraint=eastwest;whiteSpace=wrap;" vertex="1" parent="_8J_x-qcuJljue7Ap3kh-1">
          <mxGeometry y="20" width="140" height="50" as="geometry" />
        </mxCell>
        <mxCell id="_8J_x-qcuJljue7Ap3kh-8" value="&amp;lt;&amp;lt;Interface&amp;gt;&amp;gt;" style="swimlane;fontStyle=1;align=center;verticalAlign=middle;childLayout=stackLayout;horizontal=1;startSize=29;horizontalStack=0;resizeParent=1;resizeParentMax=0;resizeLast=0;collapsible=0;marginBottom=0;html=1;whiteSpace=wrap;" vertex="1" parent="1">
          <mxGeometry x="339" y="70" width="150" height="96" as="geometry" />
        </mxCell>
        <mxCell id="_8J_x-qcuJljue7Ap3kh-9" value="&lt;span style=&quot;text-align: left;&quot;&gt;JobListing&lt;/span&gt;" style="text;html=1;strokeColor=none;fillColor=none;align=center;verticalAlign=middle;spacingLeft=4;spacingRight=4;overflow=hidden;rotatable=0;points=[[0,0.5],[1,0.5]];portConstraint=eastwest;whiteSpace=wrap;" vertex="1" parent="_8J_x-qcuJljue7Ap3kh-8">
          <mxGeometry y="29" width="150" height="21" as="geometry" />
        </mxCell>
        <mxCell id="_8J_x-qcuJljue7Ap3kh-10" value="+displayDetails():void&lt;div&gt;+applyToJob(): void&lt;/div&gt;" style="text;html=1;strokeColor=none;fillColor=none;align=left;verticalAlign=middle;spacingLeft=4;spacingRight=4;overflow=hidden;rotatable=0;points=[[0,0.5],[1,0.5]];portConstraint=eastwest;whiteSpace=wrap;" vertex="1" parent="_8J_x-qcuJljue7Ap3kh-8">
          <mxGeometry y="50" width="150" height="46" as="geometry" />
        </mxCell>
        <mxCell id="_8J_x-qcuJljue7Ap3kh-11" value="" style="endArrow=block;startArrow=none;endFill=0;startFill=0;endSize=8;html=1;verticalAlign=bottom;dashed=1;labelBackgroundColor=none;rounded=0;exitX=0.127;exitY=1.065;exitDx=0;exitDy=0;exitPerimeter=0;entryX=0.707;entryY=0.029;entryDx=0;entryDy=0;entryPerimeter=0;" edge="1" parent="1" source="_8J_x-qcuJljue7Ap3kh-10" target="_8J_x-qcuJljue7Ap3kh-17">
          <mxGeometry width="160" relative="1" as="geometry">
            <mxPoint x="170" y="240" as="sourcePoint" />
            <mxPoint x="360" y="240" as="targetPoint" />
          </mxGeometry>
        </mxCell>
        <mxCell id="_8J_x-qcuJljue7Ap3kh-12" value="" style="endArrow=block;startArrow=none;endFill=0;startFill=0;endSize=8;html=1;verticalAlign=bottom;dashed=1;labelBackgroundColor=none;rounded=0;" edge="1" parent="1">
          <mxGeometry width="160" relative="1" as="geometry">
            <mxPoint x="489" y="170" as="sourcePoint" />
            <mxPoint x="489" y="230" as="targetPoint" />
          </mxGeometry>
        </mxCell>
        <mxCell id="_8J_x-qcuJljue7Ap3kh-13" value="" style="html=1;verticalAlign=bottom;labelBackgroundColor=none;endArrow=block;endFill=1;dashed=1;rounded=0;" edge="1" parent="1">
          <mxGeometry width="160" relative="1" as="geometry">
            <mxPoint x="180" y="120" as="sourcePoint" />
            <mxPoint x="340" y="120" as="targetPoint" />
          </mxGeometry>
        </mxCell>
        <mxCell id="_8J_x-qcuJljue7Ap3kh-14" value="Use" style="text;html=1;align=center;verticalAlign=middle;whiteSpace=wrap;rounded=0;" vertex="1" parent="1">
          <mxGeometry x="230" y="100" width="60" height="30" as="geometry" />
        </mxCell>
        <mxCell id="_8J_x-qcuJljue7Ap3kh-15" value="PartTimeJob" style="swimlane;fontStyle=0;align=center;verticalAlign=top;childLayout=stackLayout;horizontal=1;startSize=20;horizontalStack=0;resizeParent=1;resizeParentMax=0;resizeLast=0;collapsible=0;marginBottom=0;html=1;whiteSpace=wrap;" vertex="1" parent="1">
          <mxGeometry x="440" y="230" width="140" height="70" as="geometry" />
        </mxCell>
        <mxCell id="_8J_x-qcuJljue7Ap3kh-16" value="+displayDetails():void&lt;div&gt;+applyToJob(): void&lt;/div&gt;" style="text;html=1;strokeColor=none;fillColor=none;align=left;verticalAlign=middle;spacingLeft=4;spacingRight=4;overflow=hidden;rotatable=0;points=[[0,0.5],[1,0.5]];portConstraint=eastwest;whiteSpace=wrap;" vertex="1" parent="_8J_x-qcuJljue7Ap3kh-15">
          <mxGeometry y="20" width="140" height="50" as="geometry" />
        </mxCell>
        <mxCell id="_8J_x-qcuJljue7Ap3kh-17" value="FullTimeJob" style="swimlane;fontStyle=0;align=center;verticalAlign=top;childLayout=stackLayout;horizontal=1;startSize=20;horizontalStack=0;resizeParent=1;resizeParentMax=0;resizeLast=0;collapsible=0;marginBottom=0;html=1;whiteSpace=wrap;" vertex="1" parent="1">
          <mxGeometry x="260" y="230" width="140" height="70" as="geometry" />
        </mxCell>
        <mxCell id="_8J_x-qcuJljue7Ap3kh-18" value="+displayDetails():void&lt;div&gt;+applyToJob(): void&lt;/div&gt;" style="text;html=1;strokeColor=none;fillColor=none;align=left;verticalAlign=middle;spacingLeft=4;spacingRight=4;overflow=hidden;rotatable=0;points=[[0,0.5],[1,0.5]];portConstraint=eastwest;whiteSpace=wrap;" vertex="1" parent="_8J_x-qcuJljue7Ap3kh-17">
          <mxGeometry y="20" width="140" height="50" as="geometry" />
        </mxCell>
        <mxCell id="_8J_x-qcuJljue7Ap3kh-19" value="" style="endArrow=none;startArrow=none;endFill=0;startFill=0;endSize=8;html=1;verticalAlign=bottom;dashed=1;labelBackgroundColor=none;dashPattern=10 10;rounded=0;exitX=0.5;exitY=1.02;exitDx=0;exitDy=0;exitPerimeter=0;entryX=0.438;entryY=0;entryDx=0;entryDy=0;entryPerimeter=0;" edge="1" parent="1" source="_8J_x-qcuJljue7Ap3kh-2">
          <mxGeometry width="160" relative="1" as="geometry">
            <mxPoint x="50" y="200" as="sourcePoint" />
            <mxPoint x="110.08000000000004" y="220" as="targetPoint" />
          </mxGeometry>
        </mxCell>
        <mxCell id="_8J_x-qcuJljue7Ap3kh-23" value="&lt;span style=&quot;text-align: left;&quot;&gt;return newFullTimeJob()&lt;/span&gt;&lt;div&gt;&lt;span style=&quot;text-align: left;&quot;&gt;return newPartTimeJob()&lt;/span&gt;&lt;/div&gt;&lt;div&gt;&lt;br&gt;&lt;/div&gt;" style="shape=note2;boundedLbl=1;whiteSpace=wrap;html=1;size=17;verticalAlign=top;align=center;" vertex="1" parent="1">
          <mxGeometry x="30" y="180" width="170" height="70" as="geometry" />
        </mxCell>
      </root>
    </mxGraphModel>
  </diagram>
</mxfile>
